<svg width="20" height="20" viewBox="0 0 20 20" fill="none" xmlns="http://www.w3.org/2000/svg">
<path d="M12.4966 18.3333V15C12.6125 13.956 12.3132 12.9084 11.6632 12.0833C14.1632 12.0833 16.6632 10.4166 16.6632 7.49996C16.7299 6.45829 16.4382 5.43329 15.8299 4.58329C16.0632 3.62496 16.0632 2.62496 15.8299 1.66663C15.8299 1.66663 14.9966 1.66663 13.3299 2.91663C11.1299 2.49996 8.86324 2.49996 6.66324 2.91663C4.99657 1.66663 4.16324 1.66663 4.16324 1.66663C3.91324 2.62496 3.91324 3.62496 4.16324 4.58329C3.55647 5.42986 3.26197 6.46061 3.32991 7.49996C3.32991 10.4166 5.82991 12.0833 8.32991 12.0833C8.00491 12.4916 7.76324 12.9583 7.62157 13.4583C7.47991 13.9583 7.43824 14.4833 7.49657 15V18.3333" stroke="#ECD0D0" stroke-width="1.5" stroke-linecap="round" stroke-linejoin="round"/>
<path d="M7.4974 15C3.73906 16.6667 3.33073 13.3334 1.66406 13.3334" stroke="#ECD0D0" stroke-width="1.5" stroke-linecap="round" stroke-linejoin="round"/>
</svg>
